# xmcd
#
# Track frame offsets:
#	150
#	13163
#	23631
#	36099
#	45014
#	57694
#	75333
#	90348
#	106449
#	122361
#	136831
#	151708
#	176118
#	196123
#
# Disc length: 2690 seconds
# Revision: 0
# Processed by: cddbd v1.5.2PL0 Copyright (c) Steve Scherf et al.
# Submitted via: dBpowerAMP V12.0
#
DISCID=9a0a800e
DTITLE=Hoyt Axton - Spin Of The Wheel
DYEAR=1990
DGENRE=Country
TTITLE0=Spin Of The Wheel
TTITLE1=Heartbreak Hotel
TTITLE2=We Could've Been Sweethearts
TTITLE3=Young Man
TTITLE4=Mr. Winchester's Gun
TTITLE5=If You're A Cowboy
TTITLE6=American Dreams
TTITLE7=Mountain Right
TTITLE8=Cowboys On Horses With Wings
TTITLE9=I Collect Hearts
TTITLE10=We Were Buccaneers
TTITLE11=The Weight
TTITLE12=Thank You, Lord
TTITLE13=Blue Prelude
EXTD=
EXTT0=
EXTT1=
EXTT2=
EXTT3=
EXTT4=
EXTT5=
EXTT6=
EXTT7=
EXTT8=
EXTT9=
EXTT10=
EXTT11=
EXTT12=
EXTT13=
PLAYORDER=
